<svg aria-roledescription="er" role="graphics-document document" viewBox="-29.232412338256836 -61 273.1565704345703 667" style="max-width: 273.1565704345703px;" xmlns="http://www.w3.org/2000/svg" width="100%" id="export-svg"><style xmlns="http://www.w3.org/1999/xhtml">@import url("https://cdnjs.cloudflare.com/ajax/libs/font-awesome/6.2.0/css/all.min.css"); p {margin: 0;}</style><style>#export-svg{font-family:"trebuchet ms",verdana,arial,sans-serif;font-size:10px;fill:#333;}#export-svg .error-icon{fill:#ffffff;}#export-svg .error-text{fill:#000000;stroke:#000000;}#export-svg .edge-thickness-normal{stroke-width:1px;}#export-svg .edge-thickness-thick{stroke-width:3.5px;}#export-svg .edge-pattern-solid{stroke-dasharray:0;}#export-svg .edge-thickness-invisible{stroke-width:0;fill:none;}#export-svg .edge-pattern-dashed{stroke-dasharray:3;}#export-svg .edge-pattern-dotted{stroke-dasharray:2;}#export-svg .marker{fill:#000000;stroke:#000000;}#export-svg .marker.cross{stroke:#000000;}#export-svg svg{font-family:"trebuchet ms",verdana,arial,sans-serif;font-size:10px;}#export-svg p{margin:0;}#export-svg .entityBox{fill:#ffffff;stroke:#000000;}#export-svg .attributeBoxOdd{fill:#ffffff;stroke:#000000;}#export-svg .attributeBoxEven{fill:#f2f2f2;stroke:#000000;}#export-svg .relationshipLabelBox{fill:#ffffff;opacity:0.7;background-color:#ffffff;}#export-svg .relationshipLabelBox rect{opacity:0.5;}#export-svg .relationshipLine{stroke:#000000;}#export-svg .entityTitleText{text-anchor:middle;font-size:18px;fill:#333;}#export-svg #MD_PARENT_START{fill:#f5f5f5!important;stroke:#000000!important;stroke-width:1;}#export-svg #MD_PARENT_END{fill:#f5f5f5!important;stroke:#000000!important;stroke-width:1;}#export-svg .node .neo-node{stroke:#000000;}#export-svg [data-look="neo"].node rect,#export-svg [data-look="neo"].cluster rect,#export-svg [data-look="neo"].node polygon{stroke:url(#export-svg-gradient);filter:drop-shadow( 0px 1px 2px rgba(0, 0, 0, 0.25));}#export-svg [data-look="neo"].node rect,#export-svg [data-look="neo"].node polygon,#export-svg [data-look="neo"].node path{stroke:url(#export-svg-gradient);filter:drop-shadow( 0px 1px 2px rgba(0, 0, 0, 0.25));}#export-svg [data-look="neo"].node .neo-line path{stroke:hsl(0, 0%, 70%);filter:none;}#export-svg [data-look="neo"].node circle{stroke:url(#export-svg-gradient);filter:drop-shadow( 0px 1px 2px rgba(0, 0, 0, 0.25));}#export-svg [data-look="neo"].node circle .state-start{fill:#000000;}#export-svg [data-look="neo"].statediagram-cluster rect{fill:#ffffff;stroke:url(#export-svg-gradient);stroke-width:1px;}#export-svg [data-look="neo"].icon-shape .icon{fill:url(#export-svg-gradient);filter:drop-shadow( 0px 1px 2px rgba(0, 0, 0, 0.25));}#export-svg [data-look="neo"].icon-shape .icon-neo path{stroke:url(#export-svg-gradient);filter:drop-shadow( 0px 1px 2px rgba(0, 0, 0, 0.25));}#export-svg :root{--mermaid-font-family:"trebuchet ms",verdana,arial,sans-serif;}</style><g/><defs><marker orient="auto" markerHeight="240" markerWidth="190" refY="7" refX="0" id="MD_PARENT_START"><path d="M 18,7 L9,13 L1,7 L9,1 Z"/></marker></defs><defs><marker orient="auto" markerHeight="28" markerWidth="20" refY="7" refX="19" id="MD_PARENT_END"><path d="M 18,7 L9,13 L1,7 L9,1 Z"/></marker></defs><defs><marker orient="auto" markerHeight="18" markerWidth="18" refY="9" refX="0" id="ONLY_ONE_START"><path d="M9,0 L9,18 M15,0 L15,18" fill="none" stroke="gray"/></marker></defs><defs><marker orient="auto" markerHeight="18" markerWidth="18" refY="9" refX="18" id="ONLY_ONE_END"><path d="M3,0 L3,18 M9,0 L9,18" fill="none" stroke="gray"/></marker></defs><defs><marker orient="auto" markerHeight="18" markerWidth="30" refY="9" refX="0" id="ZERO_OR_ONE_START"><circle r="6" cy="9" cx="21" fill="white" stroke="gray"/><path d="M9,0 L9,18" fill="none" stroke="gray"/></marker></defs><defs><marker orient="auto" markerHeight="18" markerWidth="30" refY="9" refX="30" id="ZERO_OR_ONE_END"><circle r="6" cy="9" cx="9" fill="white" stroke="gray"/><path d="M21,0 L21,18" fill="none" stroke="gray"/></marker></defs><defs><marker orient="auto" markerHeight="36" markerWidth="45" refY="18" refX="18" id="ONE_OR_MORE_START"><path d="M0,18 Q 18,0 36,18 Q 18,36 0,18 M42,9 L42,27" fill="none" stroke="gray"/></marker></defs><defs><marker orient="auto" markerHeight="36" markerWidth="45" refY="18" refX="27" id="ONE_OR_MORE_END"><path d="M3,9 L3,27 M9,18 Q27,0 45,18 Q27,36 9,18" fill="none" stroke="gray"/></marker></defs><defs><marker orient="auto" markerHeight="36" markerWidth="57" refY="18" refX="18" id="ZERO_OR_MORE_START"><circle r="6" cy="18" cx="48" fill="white" stroke="gray"/><path d="M0,18 Q18,0 36,18 Q18,36 0,18" fill="none" stroke="gray"/></marker></defs><defs><marker orient="auto" markerHeight="36" markerWidth="57" refY="18" refX="39" id="ZERO_OR_MORE_END"><circle r="6" cy="18" cx="9" fill="white" stroke="gray"/><path d="M21,18 Q39,0 57,18 Q39,36 21,18" fill="none" stroke="gray"/></marker></defs><path marker-start="url(#ONLY_ONE_START)" marker-end="url(#ZERO_OR_MORE_END)" style="stroke: gray; fill: none;" d="M122.207,107L129.299,115.333C136.392,123.667,150.578,140.333,157.67,157C164.763,173.667,164.763,190.333,164.763,198.667L164.763,207" class="er relationshipLine"/><path marker-start="url(#ONLY_ONE_START)" marker-end="url(#ZERO_OR_MORE_END)" style="stroke: gray; fill: none;" d="M48.159,107L41.066,115.333C33.973,123.667,19.788,140.333,12.695,167.75C5.602,195.167,5.602,233.333,5.602,271.5C5.602,309.667,5.602,347.833,10.907,375.25C16.213,402.667,26.824,419.333,32.129,427.667L37.434,436" class="er relationshipLine"/><path marker-start="url(#ONLY_ONE_START)" marker-end="url(#ZERO_OR_MORE_END)" style="stroke: gray; fill: none;" d="M164.763,336L164.763,344.333C164.763,352.667,164.763,369.333,159.458,386C154.152,402.667,143.542,419.333,138.236,427.667L132.931,436" class="er relationshipLine"/><g transform="translate(26.715164184570312,20 )" id="entity-users-33ae1e26-be31-5c1d-bf65-e859e9d0308e"><rect height="87" width="116.93490600585938" y="0" x="0" class="er entityBox"/><text transform="translate(58.46745300292969,12)" style="dominant-baseline: middle; text-anchor: middle; font-size: 12px;" y="0" x="0" id="text-entity-users-33ae1e26-be31-5c1d-bf65-e859e9d0308e" class="er entityLabel">users</text><rect height="21" width="35.245819091796875" y="24" x="0" class="er attributeBoxOdd"/><text transform="translate(5,34.5)" style="dominant-baseline: middle; font-size: 10.2px;" y="0" x="0" id="text-entity-users-33ae1e26-be31-5c1d-bf65-e859e9d0308e-attr-1-type" class="er entityLabel">int</text><rect height="21" width="57.89410400390625" y="24" x="35.245819091796875" class="er attributeBoxOdd"/><text transform="translate(40.245819091796875,34.5)" style="dominant-baseline: middle; font-size: 10.2px;" y="0" x="0" id="text-entity-users-33ae1e26-be31-5c1d-bf65-e859e9d0308e-attr-1-name" class="er entityLabel">id</text><rect height="21" width="23.79498291015625" y="24" x="93.13992309570312" class="er attributeBoxOdd"/><text transform="translate(98.13992309570312,34.5)" style="dominant-baseline: middle; font-size: 10.2px;" y="0" x="0" id="text-entity-users-33ae1e26-be31-5c1d-bf65-e859e9d0308e-attr-1-key" class="er entityLabel">PK</text><rect height="21" width="35.245819091796875" y="45" x="0" class="er attributeBoxEven"/><text transform="translate(5,55.5)" style="dominant-baseline: middle; font-size: 10.2px;" y="0" x="0" id="text-entity-users-33ae1e26-be31-5c1d-bf65-e859e9d0308e-attr-2-type" class="er entityLabel">string</text><rect height="21" width="57.89410400390625" y="45" x="35.245819091796875" class="er attributeBoxEven"/><text transform="translate(40.245819091796875,55.5)" style="dominant-baseline: middle; font-size: 10.2px;" y="0" x="0" id="text-entity-users-33ae1e26-be31-5c1d-bf65-e859e9d0308e-attr-2-name" class="er entityLabel">first_name</text><rect height="21" width="23.79498291015625" y="45" x="93.13992309570312" class="er attributeBoxEven"/><text transform="translate(98.13992309570312,55.5)" style="dominant-baseline: middle; font-size: 10.2px;" y="0" x="0" id="text-entity-users-33ae1e26-be31-5c1d-bf65-e859e9d0308e-attr-2-key" class="er entityLabel"/><rect height="21" width="35.245819091796875" y="66" x="0" class="er attributeBoxOdd"/><text transform="translate(5,76.5)" style="dominant-baseline: middle; font-size: 10.2px;" y="0" x="0" id="text-entity-users-33ae1e26-be31-5c1d-bf65-e859e9d0308e-attr-3-type" class="er entityLabel">string</text><rect height="21" width="57.89410400390625" y="66" x="35.245819091796875" class="er attributeBoxOdd"/><text transform="translate(40.245819091796875,76.5)" style="dominant-baseline: middle; font-size: 10.2px;" y="0" x="0" id="text-entity-users-33ae1e26-be31-5c1d-bf65-e859e9d0308e-attr-3-name" class="er entityLabel">last_name</text><rect height="21" width="23.79498291015625" y="66" x="93.13992309570312" class="er attributeBoxOdd"/><text transform="translate(98.13992309570312,76.5)" style="dominant-baseline: middle; font-size: 10.2px;" y="0" x="0" id="text-entity-users-33ae1e26-be31-5c1d-bf65-e859e9d0308e-attr-3-key" class="er entityLabel"/></g><g transform="translate(105.60210418701172,207 )" id="entity-notices-24ccc861-1028-5b99-8bcb-a4e9a13a8771"><rect height="129" width="118.32205200195312" y="0" x="0" class="er entityBox"/><text transform="translate(59.16102600097656,12)" style="dominant-baseline: middle; text-anchor: middle; font-size: 12px;" y="0" x="0" id="text-entity-notices-24ccc861-1028-5b99-8bcb-a4e9a13a8771" class="er entityLabel">notices</text><rect height="21" width="35.245819091796875" y="24" x="0" class="er attributeBoxOdd"/><text transform="translate(5,34.5)" style="dominant-baseline: middle; font-size: 10.2px;" y="0" x="0" id="text-entity-notices-24ccc861-1028-5b99-8bcb-a4e9a13a8771-attr-1-type" class="er entityLabel">int</text><rect height="21" width="59.28125" y="24" x="35.245819091796875" class="er attributeBoxOdd"/><text transform="translate(40.245819091796875,34.5)" style="dominant-baseline: middle; font-size: 10.2px;" y="0" x="0" id="text-entity-notices-24ccc861-1028-5b99-8bcb-a4e9a13a8771-attr-1-name" class="er entityLabel">id</text><rect height="21" width="23.79498291015625" y="24" x="94.52706909179688" class="er attributeBoxOdd"/><text transform="translate(99.52706909179688,34.5)" style="dominant-baseline: middle; font-size: 10.2px;" y="0" x="0" id="text-entity-notices-24ccc861-1028-5b99-8bcb-a4e9a13a8771-attr-1-key" class="er entityLabel">PK</text><rect height="21" width="35.245819091796875" y="45" x="0" class="er attributeBoxEven"/><text transform="translate(5,55.5)" style="dominant-baseline: middle; font-size: 10.2px;" y="0" x="0" id="text-entity-notices-24ccc861-1028-5b99-8bcb-a4e9a13a8771-attr-2-type" class="er entityLabel">int</text><rect height="21" width="59.28125" y="45" x="35.245819091796875" class="er attributeBoxEven"/><text transform="translate(40.245819091796875,55.5)" style="dominant-baseline: middle; font-size: 10.2px;" y="0" x="0" id="text-entity-notices-24ccc861-1028-5b99-8bcb-a4e9a13a8771-attr-2-name" class="er entityLabel">user_id</text><rect height="21" width="23.79498291015625" y="45" x="94.52706909179688" class="er attributeBoxEven"/><text transform="translate(99.52706909179688,55.5)" style="dominant-baseline: middle; font-size: 10.2px;" y="0" x="0" id="text-entity-notices-24ccc861-1028-5b99-8bcb-a4e9a13a8771-attr-2-key" class="er entityLabel">FK</text><rect height="21" width="35.245819091796875" y="66" x="0" class="er attributeBoxOdd"/><text transform="translate(5,76.5)" style="dominant-baseline: middle; font-size: 10.2px;" y="0" x="0" id="text-entity-notices-24ccc861-1028-5b99-8bcb-a4e9a13a8771-attr-3-type" class="er entityLabel">string</text><rect height="21" width="59.28125" y="66" x="35.245819091796875" class="er attributeBoxOdd"/><text transform="translate(40.245819091796875,76.5)" style="dominant-baseline: middle; font-size: 10.2px;" y="0" x="0" id="text-entity-notices-24ccc861-1028-5b99-8bcb-a4e9a13a8771-attr-3-name" class="er entityLabel">notice</text><rect height="21" width="23.79498291015625" y="66" x="94.52706909179688" class="er attributeBoxOdd"/><text transform="translate(99.52706909179688,76.5)" style="dominant-baseline: middle; font-size: 10.2px;" y="0" x="0" id="text-entity-notices-24ccc861-1028-5b99-8bcb-a4e9a13a8771-attr-3-key" class="er entityLabel"/><rect height="21" width="35.245819091796875" y="87" x="0" class="er attributeBoxEven"/><text transform="translate(5,97.5)" style="dominant-baseline: middle; font-size: 10.2px;" y="0" x="0" id="text-entity-notices-24ccc861-1028-5b99-8bcb-a4e9a13a8771-attr-4-type" class="er entityLabel">string</text><rect height="21" width="59.28125" y="87" x="35.245819091796875" class="er attributeBoxEven"/><text transform="translate(40.245819091796875,97.5)" style="dominant-baseline: middle; font-size: 10.2px;" y="0" x="0" id="text-entity-notices-24ccc861-1028-5b99-8bcb-a4e9a13a8771-attr-4-name" class="er entityLabel">description</text><rect height="21" width="23.79498291015625" y="87" x="94.52706909179688" class="er attributeBoxEven"/><text transform="translate(99.52706909179688,97.5)" style="dominant-baseline: middle; font-size: 10.2px;" y="0" x="0" id="text-entity-notices-24ccc861-1028-5b99-8bcb-a4e9a13a8771-attr-4-key" class="er entityLabel"/><rect height="21" width="35.245819091796875" y="108" x="0" class="er attributeBoxOdd"/><text transform="translate(5,118.5)" style="dominant-baseline: middle; font-size: 10.2px;" y="0" x="0" id="text-entity-notices-24ccc861-1028-5b99-8bcb-a4e9a13a8771-attr-5-type" class="er entityLabel">string</text><rect height="21" width="59.28125" y="108" x="35.245819091796875" class="er attributeBoxOdd"/><text transform="translate(40.245819091796875,118.5)" style="dominant-baseline: middle; font-size: 10.2px;" y="0" x="0" id="text-entity-notices-24ccc861-1028-5b99-8bcb-a4e9a13a8771-attr-5-name" class="er entityLabel">date</text><rect height="21" width="23.79498291015625" y="108" x="94.52706909179688" class="er attributeBoxOdd"/><text transform="translate(99.52706909179688,118.5)" style="dominant-baseline: middle; font-size: 10.2px;" y="0" x="0" id="text-entity-notices-24ccc861-1028-5b99-8bcb-a4e9a13a8771-attr-5-key" class="er entityLabel"/></g><g transform="translate(20,436 )" id="entity-comments-ee4794a7-91e9-54fd-896e-9c6c78f4e4b0"><rect height="150" width="130.365234375" y="0" x="0" class="er entityBox"/><text transform="translate(65.1826171875,12)" style="dominant-baseline: middle; text-anchor: middle; font-size: 12px;" y="0" x="0" id="text-entity-comments-ee4794a7-91e9-54fd-896e-9c6c78f4e4b0" class="er entityLabel">comments</text><rect height="21" width="35.245819091796875" y="24" x="0" class="er attributeBoxOdd"/><text transform="translate(5,34.5)" style="dominant-baseline: middle; font-size: 10.2px;" y="0" x="0" id="text-entity-comments-ee4794a7-91e9-54fd-896e-9c6c78f4e4b0-attr-1-type" class="er entityLabel">int</text><rect height="21" width="71.32443237304688" y="24" x="35.245819091796875" class="er attributeBoxOdd"/><text transform="translate(40.245819091796875,34.5)" style="dominant-baseline: middle; font-size: 10.2px;" y="0" x="0" id="text-entity-comments-ee4794a7-91e9-54fd-896e-9c6c78f4e4b0-attr-1-name" class="er entityLabel">id</text><rect height="21" width="23.79498291015625" y="24" x="106.57025146484375" class="er attributeBoxOdd"/><text transform="translate(111.57025146484375,34.5)" style="dominant-baseline: middle; font-size: 10.2px;" y="0" x="0" id="text-entity-comments-ee4794a7-91e9-54fd-896e-9c6c78f4e4b0-attr-1-key" class="er entityLabel">PK</text><rect height="21" width="35.245819091796875" y="45" x="0" class="er attributeBoxEven"/><text transform="translate(5,55.5)" style="dominant-baseline: middle; font-size: 10.2px;" y="0" x="0" id="text-entity-comments-ee4794a7-91e9-54fd-896e-9c6c78f4e4b0-attr-2-type" class="er entityLabel">int</text><rect height="21" width="71.32443237304688" y="45" x="35.245819091796875" class="er attributeBoxEven"/><text transform="translate(40.245819091796875,55.5)" style="dominant-baseline: middle; font-size: 10.2px;" y="0" x="0" id="text-entity-comments-ee4794a7-91e9-54fd-896e-9c6c78f4e4b0-attr-2-name" class="er entityLabel">user_id</text><rect height="21" width="23.79498291015625" y="45" x="106.57025146484375" class="er attributeBoxEven"/><text transform="translate(111.57025146484375,55.5)" style="dominant-baseline: middle; font-size: 10.2px;" y="0" x="0" id="text-entity-comments-ee4794a7-91e9-54fd-896e-9c6c78f4e4b0-attr-2-key" class="er entityLabel">FK</text><rect height="21" width="35.245819091796875" y="66" x="0" class="er attributeBoxOdd"/><text transform="translate(5,76.5)" style="dominant-baseline: middle; font-size: 10.2px;" y="0" x="0" id="text-entity-comments-ee4794a7-91e9-54fd-896e-9c6c78f4e4b0-attr-3-type" class="er entityLabel">int</text><rect height="21" width="71.32443237304688" y="66" x="35.245819091796875" class="er attributeBoxOdd"/><text transform="translate(40.245819091796875,76.5)" style="dominant-baseline: middle; font-size: 10.2px;" y="0" x="0" id="text-entity-comments-ee4794a7-91e9-54fd-896e-9c6c78f4e4b0-attr-3-name" class="er entityLabel">notice_id</text><rect height="21" width="23.79498291015625" y="66" x="106.57025146484375" class="er attributeBoxOdd"/><text transform="translate(111.57025146484375,76.5)" style="dominant-baseline: middle; font-size: 10.2px;" y="0" x="0" id="text-entity-comments-ee4794a7-91e9-54fd-896e-9c6c78f4e4b0-attr-3-key" class="er entityLabel">FK</text><rect height="21" width="35.245819091796875" y="87" x="0" class="er attributeBoxEven"/><text transform="translate(5,97.5)" style="dominant-baseline: middle; font-size: 10.2px;" y="0" x="0" id="text-entity-comments-ee4794a7-91e9-54fd-896e-9c6c78f4e4b0-attr-4-type" class="er entityLabel">string</text><rect height="21" width="71.32443237304688" y="87" x="35.245819091796875" class="er attributeBoxEven"/><text transform="translate(40.245819091796875,97.5)" style="dominant-baseline: middle; font-size: 10.2px;" y="0" x="0" id="text-entity-comments-ee4794a7-91e9-54fd-896e-9c6c78f4e4b0-attr-4-name" class="er entityLabel">date</text><rect height="21" width="23.79498291015625" y="87" x="106.57025146484375" class="er attributeBoxEven"/><text transform="translate(111.57025146484375,97.5)" style="dominant-baseline: middle; font-size: 10.2px;" y="0" x="0" id="text-entity-comments-ee4794a7-91e9-54fd-896e-9c6c78f4e4b0-attr-4-key" class="er entityLabel"/><rect height="21" width="35.245819091796875" y="108" x="0" class="er attributeBoxOdd"/><text transform="translate(5,118.5)" style="dominant-baseline: middle; font-size: 10.2px;" y="0" x="0" id="text-entity-comments-ee4794a7-91e9-54fd-896e-9c6c78f4e4b0-attr-5-type" class="er entityLabel">string</text><rect height="21" width="71.32443237304688" y="108" x="35.245819091796875" class="er attributeBoxOdd"/><text transform="translate(40.245819091796875,118.5)" style="dominant-baseline: middle; font-size: 10.2px;" y="0" x="0" id="text-entity-comments-ee4794a7-91e9-54fd-896e-9c6c78f4e4b0-attr-5-name" class="er entityLabel">comment</text><rect height="21" width="23.79498291015625" y="108" x="106.57025146484375" class="er attributeBoxOdd"/><text transform="translate(111.57025146484375,118.5)" style="dominant-baseline: middle; font-size: 10.2px;" y="0" x="0" id="text-entity-comments-ee4794a7-91e9-54fd-896e-9c6c78f4e4b0-attr-5-key" class="er entityLabel"/><rect height="21" width="35.245819091796875" y="129" x="0" class="er attributeBoxEven"/><text transform="translate(5,139.5)" style="dominant-baseline: middle; font-size: 10.2px;" y="0" x="0" id="text-entity-comments-ee4794a7-91e9-54fd-896e-9c6c78f4e4b0-attr-6-type" class="er entityLabel">string</text><rect height="21" width="71.32443237304688" y="129" x="35.245819091796875" class="er attributeBoxEven"/><text transform="translate(40.245819091796875,139.5)" style="dominant-baseline: middle; font-size: 10.2px;" y="0" x="0" id="text-entity-comments-ee4794a7-91e9-54fd-896e-9c6c78f4e4b0-attr-6-name" class="er entityLabel">old_comment</text><rect height="21" width="23.79498291015625" y="129" x="106.57025146484375" class="er attributeBoxEven"/><text transform="translate(111.57025146484375,139.5)" style="dominant-baseline: middle; font-size: 10.2px;" y="0" x="0" id="text-entity-comments-ee4794a7-91e9-54fd-896e-9c6c78f4e4b0-attr-6-key" class="er entityLabel"/></g><rect height="14" width="33.677734375" y="145.1798553466797" x="138.5910186767578" class="er relationshipLabelBox"/><text style="text-anchor: middle; dominant-baseline: middle; font-size: 12px;" y="152.1798553466797" x="155.4298858642578" id="rel613" class="er relationshipLabel">create</text><rect height="14" width="29.669921875" y="262.23541259765625" x="-9.232412815093994" class="er relationshipLabelBox"/><text style="text-anchor: middle; dominant-baseline: middle; font-size: 12px;" y="269.23541259765625" x="5.602548122406006" id="rel614" class="er relationshipLabel">make</text><rect height="14" width="19.359375" y="381.9644470214844" x="148.77999877929688" class="er relationshipLabelBox"/><text style="text-anchor: middle; dominant-baseline: middle; font-size: 12px;" y="388.9644470214844" x="158.45968627929688" id="rel615" class="er relationshipLabel">has</text><text class="entityTitleText" y="-25" x="107.34587287902832">Mini Notice</text></svg>